<?xml version="1.0" encoding="UTF-8" standalone="no"?>
<!-- Created with Inkscape (http://www.inkscape.org/) -->

<svg
   xmlns:dc="http://purl.org/dc/elements/1.1/"
   xmlns:cc="http://creativecommons.org/ns#"
   xmlns:rdf="http://www.w3.org/1999/02/22-rdf-syntax-ns#"
   xmlns:svg="http://www.w3.org/2000/svg"
   xmlns="http://www.w3.org/2000/svg"
   xmlns:sodipodi="http://sodipodi.sourceforge.net/DTD/sodipodi-0.dtd"
   xmlns:inkscape="http://www.inkscape.org/namespaces/inkscape"
   width="744.09448819"
   height="1052.3622047"
   id="svg2"
   version="1.1"
   inkscape:version="0.48.5 r10040"
   sodipodi:docname="xtrm-logo-v2.svg">
  <defs
     id="defs4" />
  <sodipodi:namedview
     id="base"
     pagecolor="#ffffff"
     bordercolor="#666666"
     borderopacity="1.0"
     inkscape:pageopacity="0.0"
     inkscape:pageshadow="2"
     inkscape:zoom="1.8247504"
     inkscape:cx="251.3334"
     inkscape:cy="426.01844"
     inkscape:document-units="px"
     inkscape:current-layer="layer1"
     showgrid="false"
     inkscape:window-width="1393"
     inkscape:window-height="856"
     inkscape:window-x="47"
     inkscape:window-y="0"
     inkscape:window-maximized="1" />
  <metadata
     id="metadata7">
    <rdf:RDF>
      <cc:Work
         rdf:about="">
        <dc:format>image/svg+xml</dc:format>
        <dc:type
           rdf:resource="http://purl.org/dc/dcmitype/StillImage" />
        <dc:title></dc:title>
      </cc:Work>
    </rdf:RDF>
  </metadata>
  <g
     inkscape:label="Layer 1"
     inkscape:groupmode="layer"
     id="layer1">
    <path
       style="fill:#000000;fill-opacity:1;stroke:none"
       id="path4188"
       d="m 59.382114,58.594026 c 6.498331,0.205652 13.001643,0.216783 19.502739,0.219692 7.342348,-0.01221 14.684664,-0.03723 22.027007,-0.05036 4.99363,-0.03705 9.98743,-0.04486 14.98056,-0.129639 2.91936,-0.241363 5.45397,1.107606 8.0143,2.289543 3.35605,2.694407 4.37608,6.841557 5.19693,10.867671 0.81219,5.36711 1.72422,10.700612 2.2529,16.105992 0.42326,3.731018 0.57666,7.483577 0.57494,11.236208 -0.17924,3.584056 0.0927,7.099916 0.65193,10.633736 0.83475,4.60582 2.26003,9.06348 3.83411,13.46206 1.79053,4.90246 3.61171,9.7571 6.00065,14.404 1.8571,3.46008 4.02389,6.68137 7.01216,9.25313 3.31162,2.10946 6.89479,3.12253 10.74495,3.6197 5.28957,0.47615 10.61094,0.47253 15.91787,0.47787 5.40882,-0.0149 10.81818,-0.019 16.2264,-0.1094 3.62117,-0.0355 7.2424,-0.0296 10.86375,-0.0344 0.54221,0.1002 1.08442,0.2004 1.62663,0.30059 0,0 -19.48691,13.78407 -19.48691,13.78407 l 0,0 c -0.46876,-0.0286 -0.93752,-0.0573 -1.40628,-0.0859 -3.59671,-0.003 -7.19329,0.006 -10.7899,-0.0132 -5.34218,-0.0678 -10.68497,-0.0321 -16.02744,-0.05 -5.43412,-0.0248 -10.90011,0.10237 -16.297,-0.64307 -4.19199,-0.74667 -8.14938,-2.14244 -11.59966,-4.71696 -3.0607,-2.91498 -5.40284,-6.30277 -7.32142,-10.06994 -2.39902,-4.76256 -4.20056,-9.71485 -6.0831,-14.69473 -1.63917,-4.51013 -3.21004,-9.05394 -4.2642,-13.74197 -0.56889,-3.6465 -1.04693,-7.25005 -0.79999,-10.95613 -0.0545,-3.72056 -0.0504,-7.444 -0.30175,-11.15866 -0.42867,-5.331644 -1.31959,-10.585463 -2.13604,-15.867297 -0.65217,-3.18551 -1.33555,-6.979276 -4.38008,-8.766491 -2.33861,-1.091281 -4.685417,-1.719993 -7.301878,-1.519954 -4.874137,-0.08682 -9.749019,-0.09175 -14.623687,-0.129639 -7.296139,-0.01311 -14.592246,-0.03818 -21.888386,-0.05036 -6.70274,0.003 -13.407288,0.02047 -20.1075,0.219692 0,0 19.387395,-14.085766 19.387395,-14.085766 z"
       inkscape:connector-curvature="0" />
    <path
       style="fill:#000000;fill-opacity:1;stroke:none"
       id="path4190"
       d="m 59.208822,154.01671 c 3.59587,0.38436 7.088151,-0.2818 10.626129,-0.79478 3.662191,-0.92581 7.21861,-2.15678 10.904202,-2.97875 3.189625,-0.48601 6.341139,-1.31843 9.349554,-2.47092 2.780838,-1.11758 5.871285,-1.63364 8.444176,-3.2204 -35.924688,20.32139 -20.683462,12.36189 -13.130171,6.97858 2.883971,-1.60917 5.074858,-3.98513 7.240232,-6.42444 2.596874,-2.89161 5.21629,-5.76331 8.003236,-8.47351 2.62905,-2.46485 5.39338,-4.79253 7.84161,-7.44061 2.20575,-2.73987 4.67419,-5.25003 7.15429,-7.73851 2.50762,-2.61696 5.10456,-5.17575 7.40333,-7.98105 1.79414,-3.19575 3.98976,-5.97441 6.59306,-8.53399 2.4064,-2.44127 5.08593,-4.58787 7.60061,-6.915165 2.35963,-2.258499 4.77409,-4.460985 7.2856,-6.549837 1.97328,-1.232357 3.39563,-3.125368 5.29542,-4.423665 7.27943,-5.996795 16.01994,-9.249121 24.05379,-14.600142 6.25579,-4.166732 -13.00141,7.546756 -19.52736,11.276168 -0.3409,0.194812 0.64571,-0.446874 0.96857,-0.670312 7.13171,-4.130855 14.26342,-8.261711 21.39514,-12.392566 -6.52018,3.765985 -26.07372,15.076001 -19.56052,11.297954 7.17068,-4.159432 14.40976,-8.201937 21.533,-12.442112 6.44688,-3.837568 -12.98303,7.523457 -19.50375,11.234176 -0.65714,0.37396 1.24106,-0.864288 1.87202,-1.280906 6.5291,-19.292575 15.6886,-8.884242 24.25104,-13.510341 1.12829,-0.609589 1.92076,-1.26057 3.16521,-1.704258 2.59072,-0.824745 5.43145,-0.749386 8.13418,-0.785635 3.81735,-0.20147 7.70931,0.466711 11.47218,-0.309294 2.88541,-0.45037 5.6019,-1.435107 8.43279,-2.099428 2.78416,-0.352624 5.42953,-1.018533 8.12821,-1.784824 2.44175,-0.569473 4.9501,-0.62545 7.44439,-0.67567 2.59075,-0.04247 5.18126,-0.01038 7.77214,-0.0036 2.91624,-0.0039 5.83232,0.02278 8.74862,0.02902 2.75492,-0.01218 5.51043,-0.03934 8.26526,-0.01514 2.73671,-0.09452 5.33204,-1.022032 8.07825,-1.300046 3.05914,-0.241994 6.13051,-0.296619 9.19798,-0.331215 2.29113,-0.757897 4.54002,-1.308776 6.95432,-1.43559 3.13766,-0.154993 6.2798,-0.136862 9.42001,-0.177844 3.20507,-0.05767 6.33291,-0.968895 9.53266,-1.270454 2.88165,-0.267675 5.76926,-0.343193 8.66096,-0.343548 3.1039,-0.0075 6.20744,0.01017 9.31132,0.01932 3.09373,0.284477 5.95582,-0.164138 8.91623,-0.980006 3.00644,-0.475805 6.05558,-0.549939 9.0928,-0.612848 3.02136,-0.02883 6.04292,-0.05599 9.06444,-0.05207 2.87039,-0.312512 5.53129,0.35283 8.30144,0.940996 2.73972,1.000602 5.38359,2.2469 7.98189,3.575056 2.57466,1.081914 5.06037,2.524352 6.79847,4.745808 1.48447,1.472035 2.6489,3.19784 3.46756,5.115726 0.96657,2.968063 1.29947,6.089575 0.94375,9.184423 -0.45031,2.392024 -1.60027,4.55153 -2.97736,6.530606 -5.64378,6.940218 -16.8255,10.730818 -23.00835,14.209775 -0.3453,0.194289 -0.79584,0.08387 -1.16823,0.219173 -0.68778,0.249894 -1.29575,0.687091 -1.97677,0.954862 0.41113,-0.321856 -2.71813,1.248108 -2.06942,0.874071 64.72064,-37.31721 -47.99295,27.597828 14.85908,-8.516011 -48.54569,28.031819 -12.05444,6.951011 -3.32161,1.942457 0.49307,-0.28279 -0.97181,0.589868 -1.4579,0.884486 -1.67946,1.017911 -3.34687,2.036884 -4.98715,3.117253 -3.52974,2.627331 -7.14248,5.136283 -10.75866,7.641903 -2.56591,1.70993 -4.7852,3.86202 -7.1346,5.84674 -2.22843,1.6376 -4.66078,2.961 -6.83259,4.67578 -1.55813,1.25162 -2.10351,0.47417 -0.87149,1.91245 1.743,0.60787 3.17232,1.77754 4.72073,2.76893 2.19064,1.59838 4.47469,3.08214 6.71503,4.62854 2.11647,1.69497 3.86274,3.77745 5.84402,5.62652 2.37512,2.6052 4.10051,5.70241 7.12662,7.61296 2.18825,1.48025 4.35049,2.92748 6.23907,4.78745 1.5068,2.17781 3.73803,3.05198 6.00962,4.17959 2.84622,1.13702 5.63449,1.99814 8.33143,3.50964 2.23391,1.26195 4.70623,1.53521 7.21542,1.67487 2.65751,0.10441 5.17216,0.46081 7.52269,-0.93202 2.60975,-1.35321 5.11587,-2.77706 8.00958,-3.42696 8.34409,-3.51833 22.45695,-12.3928 -13.11184,8.01054 2.6341,-2.13353 5.04493,-4.55976 7.4286,-6.97097 1.88128,-2.24675 4.04976,-4.15725 6.31527,-5.9952 1.68486,-1.65668 3.36707,-3.2939 5.16059,-4.8333 2.36267,-2.36394 4.00023,-5.24294 5.54272,-8.17413 1.80963,-3.48149 3.50597,-6.99374 4.82364,-10.69122 1.39392,-4.52749 2.43883,-9.14163 3.05852,-13.83623 0.50595,-4.513192 0.5983,-9.061604 0.549,-13.598997 -0.008,-3.231757 -0.003,-6.462932 -0.0808,-9.694073 0.0694,-2.629282 0.91261,-5.106086 1.86578,-7.523832 0.66855,-2.254008 2.11458,-4.033603 3.46457,-5.889861 1.45204,-1.878329 3.1258,-3.603828 4.86284,-5.223534 1.68206,-1.381381 3.30261,-2.828651 5.12516,-4.023679 15.54588,-10.91827 15.62141,-12.120979 27.41971,-12.347991 2.635,0.01173 5.27045,0.0086 7.90525,0.0408 2.74206,0.197743 5.32979,-0.07391 7.99763,-0.612148 3.00955,-0.68643 6.1175,-0.790435 9.19051,-0.934411 2.83566,-0.129587 5.67657,-0.06734 8.51444,-0.05653 3.31026,0.01027 6.62055,0.01113 9.93082,0.01191 3.075,-0.04011 6.14973,0.01924 9.22484,-0.0079 2.9278,-0.01402 5.85565,-0.0035 8.78346,9.46e-4 2.73164,0.707529 5.48806,1.1834 8.29792,1.420546 3.02281,0.194349 6.05405,0.204114 9.08197,0.217803 3.2085,-0.09672 6.34829,-0.165533 9.28702,1.25931 2.61108,1.041174 4.42264,3.228187 6.47006,5.045839 1.80421,1.969964 2.96281,4.501549 3.93152,6.974916 1.01926,2.839891 1.10918,5.851226 1.20825,8.832653 0.0605,3.123025 0.0939,6.246439 0.0526,9.369794 0.2469,3.280928 -0.23688,6.480209 -0.7041,9.711866 -0.5519,3.457425 -0.7386,6.952147 -0.89212,10.444747 -0.12791,4.028087 -0.10646,8.060117 -0.0874,12.089967 0.0262,3.05311 0.0349,6.10686 0.0911,9.15958 0.15091,2.694 -0.6731,5.27154 -1.12223,7.89404 -0.45273,3.03168 -0.44892,6.1 -0.52432,9.15614 -0.007,0.5416 -0.0139,1.08319 -0.0208,1.62478 0,0 -21.25141,10.81229 -21.25141,10.81229 l 0,0 c -5e-4,-0.54317 -10e-4,-1.08633 -0.001,-1.62949 -0.002,-3.13908 0.10426,-6.28289 0.36069,-9.41183 0.2802,-2.56847 1.13346,-5.0099 1.21909,-7.5705 0.0513,-3.08081 0.053,-6.16259 0.0731,-9.24373 0.0147,-4.04716 0.0203,-8.09421 0.04,-12.14114 0.0415,-3.5785 0.2444,-7.15646 0.77396,-10.699423 0.46503,-3.123542 0.96767,-6.202641 0.7899,-9.373615 -0.0256,-3.101402 0.0467,-6.20259 -0.0128,-9.303929 -0.0705,-2.712867 -0.10964,-5.465252 -0.90888,-8.083622 -0.79549,-2.141319 -1.77838,-4.359607 -3.36597,-6.021138 -1.81276,-1.7131 -3.56119,-3.513427 -6.00091,-4.306348 -2.84478,-0.799501 -5.7736,-0.570916 -8.70067,-0.589268 -3.08799,-0.02227 -6.17992,-0.04935 -9.25388,-0.381971 -2.72993,-0.336134 -5.40061,-1.030638 -8.1409,-1.228233 -2.92876,0.0045 -5.85756,0.01515 -8.7863,9.27e-4 -3.0665,-0.02813 -6.13271,0.03228 -9.19906,-0.01272 -3.3113,-0.0039 -6.62261,-0.01209 -9.93391,-0.0062 -2.82399,0.01324 -5.64813,0.04438 -8.4694,0.175988 -3.0294,0.174003 -6.03663,0.538668 -9.00728,1.168249 -2.74263,0.427773 -5.50139,0.299617 -8.27061,0.279725 -2.6346,0.01328 -5.27012,-0.03845 -7.90399,0.05463 -9.65522,0.379654 -20.05854,8.891288 14.33923,-10.417353 -1.93455,1.025106 -3.70935,2.157738 -5.30034,3.680241 -1.89057,1.393405 -3.38251,3.110356 -5.10798,4.671919 -1.28304,1.782438 -2.74169,3.340623 -3.78222,5.284171 -0.73107,2.28857 -1.87568,4.370431 -2.22987,6.784576 -0.0582,3.263925 -0.0271,6.5277 -0.0572,9.791633 -0.11601,4.63377 -0.10412,9.275599 -0.52312,13.896045 -0.5688,4.822249 -1.59456,9.527807 -2.79488,14.230937 -1.20749,3.85579 -2.74082,7.48361 -4.6614,11.03938 -1.55884,2.96089 -2.83216,6.10162 -5.08358,8.63393 -1.4057,1.94113 -3.56133,3.18581 -5.14547,4.96876 -1.91318,2.2532 -4.73949,3.50788 -6.46514,5.9832 -2.33273,2.51114 -4.87753,4.77066 -7.19286,7.30222 -8.66846,5.13531 -17.91282,12.20559 -28.01378,15.42661 -2.70688,1.04444 -5.18455,2.57407 -7.91954,3.55163 -2.67918,0.5398 -5.42407,0.25763 -8.13506,0.0624 -2.75661,-0.32563 -5.38075,-1.02427 -7.7744,-2.48808 -2.64886,-1.41459 -5.60221,-1.9716 -8.23139,-3.43436 -2.51033,-1.19093 -4.80341,-2.55149 -6.55281,-4.76443 -1.77165,-1.76151 -3.93776,-3.02356 -5.91117,-4.53855 -2.86954,-2.24996 -4.75902,-5.29807 -7.3428,-7.84158 -1.91091,-1.76541 -3.54597,-3.83452 -5.6773,-5.34822 -2.19839,-1.57447 -4.4857,-3.02182 -6.72837,-4.53207 -1.70711,-1.15052 -3.64997,-1.94155 -5.17278,-3.33028 -1.35933,-1.69103 -2.79884,-3.68099 -0.73623,-5.47441 2.28878,-1.55735 4.34802,-3.4207 6.83089,-4.704 2.71436,-1.62481 4.75069,-4.10976 7.29381,-5.95867 3.63259,-2.48259 7.31521,-4.89621 10.76206,-7.63111 12.45672,-9.128205 52.31163,-29.851282 9.67325,-6.064401 7.32343,-4.243258 14.63595,-8.5054 21.97029,-12.729774 0.50658,-0.291776 2.05602,-1.113085 1.55134,-0.818027 -6.35252,3.713987 -25.60764,14.503341 -19.09621,11.075594 7.36983,-3.879621 14.4238,-8.332161 21.67331,-12.432227 0.6624,-0.374632 1.43418,-0.526004 2.10357,-0.887202 14.32945,-6.612405 -26.04881,15.877043 -14.6947,8.91434 1.47608,-1.645913 2.59215,-3.453091 3.54523,-5.44626 0.55281,-2.693294 0.50781,-5.32698 -0.36736,-7.974615 -0.73179,-1.713244 -1.93446,-3.146294 -3.16571,-4.528721 -1.59605,-1.890548 -3.93465,-2.896936 -6.14106,-3.905887 -2.51827,-1.137897 -4.95191,-2.527738 -7.6898,-3.075867 -2.65538,-0.554992 -5.29526,-0.66362 -8.00876,-0.541934 -2.98849,-5.56e-4 -5.97777,-0.03623 -8.96503,0.07584 -2.98554,0.128658 -5.99059,0.298393 -8.89691,1.049297 -3.03057,0.567331 -6.07153,0.531557 -9.14818,0.472555 -3.11159,0.002 -6.22325,5.1e-4 -9.33457,0.03813 -2.8293,0.07073 -5.66408,0.175562 -8.47413,0.53192 -3.22546,0.49252 -6.44815,1.164949 -9.72756,1.069441 -3.10138,-0.0019 -6.21436,0.03524 -9.29671,0.409329 -2.36417,0.427133 -4.66155,1.23262 -7.08713,1.232602 -3.0075,0.04814 -6.02442,0.102938 -9.00472,0.553772 -2.7495,0.480176 -5.4543,1.272596 -8.28164,1.044547 -2.74032,0.02341 -5.4813,-0.0023 -8.22167,-0.0181 -2.93445,0.003 -5.86874,0.0243 -8.80308,0.0078 -2.57984,-9.19e-4 -5.16084,0.0013 -7.73909,0.09942 -2.40571,0.140456 -4.80595,0.389497 -7.12114,1.101186 -2.68143,0.677459 -5.40801,1.041502 -8.08758,1.725547 -2.82578,0.799107 -5.67528,1.518018 -8.60575,1.818361 -3.86408,0.11607 -7.73447,-0.04132 -11.59791,0.165766 -2.62603,0.151494 -5.28485,0.319135 -7.65256,1.584807 -7.95693,4.426525 -22.70079,9.972982 13.71698,-8.345746 -7.73866,4.547277 -16.52313,9.235455 -23.38264,13.759195 -6.2611,4.129106 25.86233,-15.201288 19.45818,-11.297709 -3.52214,2.146887 -50.89933,29.576997 -1.83006,1.141644 -8.0739,4.38845 -5.15594,2.787889 -22.41561,13.125855 -6.44724,3.861681 12.95422,-7.622826 19.44859,-11.404713 0.31491,-0.183381 -0.6317,0.371092 -0.90845,0.608167 -1.81943,1.558604 0.30203,0.21395 -1.70944,1.373489 -1.82604,1.717805 0.26429,-0.09168 -1.75751,1.202752 -1.36288,0.872566 -2.04614,2.601449 -3.60079,3.290827 -2.65437,1.937791 -5.09087,4.127717 -7.46374,6.400409 -2.49187,2.317094 -4.96648,4.647053 -7.62584,6.774826 -2.41054,2.661836 -5.42541,4.753971 -6.76352,8.262341 -2.02582,3.10551 -4.7737,5.56081 -7.24003,8.30622 -2.45796,2.46369 -4.9424,4.90611 -7.25404,7.50974 -2.13963,3.02917 -5.08871,5.22722 -7.71453,7.81424 -2.98575,2.4132 -5.44686,5.39584 -8.0662,8.19084 -2.15993,2.44469 -4.11159,5.26278 -6.94311,6.95955 -9.156781,5.78255 -17.128707,12.8804 -27.821786,16.64018 -2.852565,1.00762 -5.707296,2.00083 -8.580068,2.94947 -3.101436,0.8844 -6.19463,1.71253 -9.37939,2.25558 -3.669949,0.99091 -7.292655,2.20679 -11.059585,2.79838 -3.667845,0.51244 -7.320921,0.72985 -11.026451,0.67027 0,0 19.427792,-14.11512 19.427792,-14.11512 z"
       inkscape:connector-curvature="0" />
    <path
       style="fill:#000000;fill-opacity:1;stroke:none"
       id="path4192"
       d="m 487.79496,48.425931 c -0.88984,3.384645 -1.16314,6.875404 -1.38934,10.35393 -0.16795,3.037758 -0.2288,6.081662 -0.19492,9.123687 -0.0141,3.17214 -0.0316,6.344418 -0.0313,9.51684 0.0213,3.249662 0.013,6.498541 0.008,9.74826 -0.004,3.223234 0.0181,6.44565 0.004,9.668733 -0.01,3.228889 0.0127,6.456989 -9e-4,9.685739 0.0103,3.24588 0.002,6.49104 -0.004,9.73697 0.0357,2.75732 0.0541,5.51118 0.0241,8.26851 -0.0111,3.17725 -0.048,6.35505 0.002,9.53207 0.003,0.45627 0.006,0.91254 0.009,1.36881 0,0 -21.30336,10.85461 -21.30336,10.85461 l 0,0 c 0.003,-0.45932 0.006,-0.91863 0.009,-1.37795 0.0489,-3.17759 0.0134,-6.35593 0.002,-9.53374 -0.0304,-2.7655 -0.0107,-5.52757 0.0241,-8.29308 -0.006,-3.24452 -0.0144,-6.48828 -0.004,-9.73276 -0.0136,-3.22846 0.009,-6.45628 -8.1e-4,-9.68488 -0.0139,-3.22439 0.008,-6.44812 0.004,-9.672651 -0.006,-3.250402 -0.0153,-6.500009 6.4e-4,-9.750372 -0.005,-3.16277 -0.0345,-6.32521 -0.0457,-9.487746 0.0516,-3.097659 0.006,-6.198365 0.19054,-9.292676 0.24318,-3.52741 0.54228,-7.064089 1.09487,-10.556759 0,0 21.60327,-10.475545 21.60327,-10.475545 z"
       inkscape:connector-curvature="0" />
    <path
       style="fill:#000000;fill-opacity:1;stroke:none"
       id="path4194"
       d="m 246.86538,64.388447 c -0.18016,4.332015 -0.17576,8.672408 -0.15876,13.008116 0.0428,3.781985 0.0629,7.563102 0.0689,11.345295 -0.001,3.006814 0.0464,6.0128 0.0412,9.019641 -0.31189,3.256521 -1.03588,6.437321 -1.33912,9.699411 -0.34464,4.04323 -0.30593,8.1046 -0.35683,12.15844 -0.22456,3.73629 -0.88251,7.42684 -1.24497,11.15031 -0.27773,3.08245 -0.27132,6.17777 -0.29554,9.26935 -0.009,2.90318 -0.0473,5.80675 -0.002,8.70973 0,0 -21.30209,10.8574 -21.30209,10.8574 l 0,0 c 0.037,-2.9089 -0.0153,-5.81795 -0.006,-8.72701 0.0184,-3.16211 0.11268,-6.32492 0.29465,-9.4819 0.28283,-3.69648 0.92329,-7.33598 1.40042,-11.01082 -0.0127,-4.10208 0.0839,-8.20366 0.24295,-12.30262 0.2197,-3.19625 0.49241,-6.36031 1.30974,-9.46963 -0.005,-3.02084 0.0424,-6.04085 0.0413,-9.061672 0.006,-3.805603 0.0264,-7.610154 0.0689,-11.415554 0.0167,-4.281704 0.0242,-8.568522 -0.15876,-12.846327 0,0 21.39669,-10.90216 21.39669,-10.90216 z"
       inkscape:connector-curvature="0" />
    <path
       style="fill:#000000;fill-opacity:1;stroke:none"
       id="path4200"
       d="m 65.886833,301.61186 c 15.122733,0.29227 29.825946,0.2691 44.192367,0.0503 2.25314,0.1313 4.58932,-0.31888 6.79578,0.20842 2.473,1.19662 2.47907,3.73637 2.61514,6.17304 -0.0191,4.36827 0.76706,8.67397 1.27623,12.99734 2.17395,15.96301 3.58248,46.04019 16.42019,57.21425 2.65114,2.20177 5.97237,3.15954 9.28219,3.86444 18.70255,1.59876 37.18465,1.01032 55.005,0.78183 2.18128,-0.008 1.10654,-0.003 3.22422,-0.0137 l -13.55568,9.84919 0,0 c -17.48051,-1.39797 -40.16835,2.00864 -58.35323,-1.14392 -3.55829,-0.87792 -7.03674,-2.02853 -9.84514,-4.48864 -2.41156,-2.17737 -4.65279,-4.63728 -5.67781,-7.78875 -7.63704,-15.92886 -9.2381,-33.8725 -11.09165,-50.60939 -0.57313,-4.31442 -1.46471,-8.60032 -1.56327,-12.96425 -0.10042,-1.44248 0.25109,-3.79843 -1.58262,-4.13438 -11.847367,-0.0853 -24.2214,-0.29818 -35.407751,-0.2149 -5.157352,0.0282 -10.316692,0.0119 -15.471489,0.20003 l 13.737523,-9.98089 z"
       inkscape:connector-curvature="0"
       sodipodi:nodetypes="ccccccccccccccccccccc"
       inkscape:export-filename="/Users/geza/Dropbox/xtrm-logo/xtrm-logo5.png"
       inkscape:export-xdpi="207.18076"
       inkscape:export-ydpi="207.18076" />
    <path
       style="fill:#000000;fill-opacity:1;stroke:none"
       id="path4230"
       d="m 111.80053,348.57123 c 2.25099,-2.89115 8.77387,-7.51479 11.34145,-10.13709 16.08128,-14.57892 33.33571,-35.00553 53.26898,-35.38995 43.31232,-0.83527 96.97399,-1.09384 141.83586,-1.37066 14.90765,-0.25166 34.49943,0.57704 26.29237,19.41247 -21.55477,22.48634 -35.92728,47.54634 -63.75266,59.63518 l 0,0 c 0.54406,-0.84262 1.23228,-1.53283 1.69689,-2.42761 3.51515,-9.67916 22.48323,-30.63103 35.74153,-46.17886 10.36987,-12.16061 18.94896,-20.58978 2.6478,-20.54909 -47.91473,-0.12706 -101.95679,0.098 -141.34052,1.50068 -20.62462,0.73458 -35.67607,23.8139 -48.23299,38.91814 -25.04075,27.99827 -49.750778,37.52265 -79.532036,40.07935 43.130378,-25.14572 28.993292,-18.1778 60.033326,-43.49256 z"
       inkscape:connector-curvature="0"
       sodipodi:nodetypes="ccscccccscsccc"
       inkscape:export-filename="/Users/geza/Dropbox/xtrm-logo/xtrm-logo5.png"
       inkscape:export-xdpi="207.18076"
       inkscape:export-ydpi="207.18076" />
    <path
       style="fill:#000000;fill-opacity:1;stroke:none"
       id="path4232"
       d="m 307.8512,357.94898 c 10.06426,11.69265 12.1876,12.82616 18.83728,19.18073 12.27578,11.731 19.13755,11.51257 26.25916,7.71935 7.49412,-3.99164 11.08685,-10.47426 10.82269,-20.09696 3.7089,-37.44176 2.8606,-27.76762 3.24251,-52.09574 0.55859,-16.22445 8.76332,-12.39851 98.21507,-13.31106 4.93918,0.0235 8.90825,0.34316 12.07649,0.61794 11.81337,1.02455 7.60809,24.37177 7.7479,40.58524 0.23217,26.92368 -0.0451,0.28989 0.10091,27.22891 -0.0205,0.30839 -1.68506,28.56582 -1.70546,28.87421 -12.34296,-13.84463 -13.45049,-18.84487 -12.10926,-47.92009 0.39775,-8.62261 -0.18156,-26.81172 0.16779,-38.52795 -77.72996,-0.42531 -8.56263,-0.68581 -88.81987,-0.55302 -5.01379,73.63455 3.42661,85.69505 -41.79281,85.38976 -28.82318,-1.90385 -45.11358,-34.27203 -59.98235,-49.92921 13.30675,-0.66537 12.97572,-1.46276 26.93995,12.83812 z"
       inkscape:connector-curvature="0"
       sodipodi:nodetypes="csscccssccscccccc"
       inkscape:export-filename="/Users/geza/Dropbox/xtrm-logo/xtrm-logo5.png"
       inkscape:export-xdpi="207.18076"
       inkscape:export-ydpi="207.18076" />
    <path
       style="fill:#000000;fill-opacity:1;stroke:none"
       id="path4252"
       d="m 238.04473,307.13366 c -0.178,3.6471 -0.13234,7.30165 -0.1405,10.95234 0.0148,3.03836 0.0912,6.07634 0.0702,9.11483 0.0299,2.35391 0.0248,4.70811 0.0229,7.06218 0.007,2.33737 -0.0231,4.67507 0.0109,7.01226 -0.0182,2.29446 -0.015,4.58851 -0.002,6.88304 0.0417,1.82792 0.023,3.65597 0.003,5.48391 -0.019,2.38703 -0.0185,4.77419 -0.0191,7.16131 0.0386,2.28295 -0.0137,4.56593 0.0106,6.84884 0.0246,2.08923 0.0139,4.17736 -0.005,6.26647 -0.0334,2.43462 0.0163,4.86957 -0.002,7.30399 0.0261,2.16559 0.0123,4.33146 0.007,6.49715 l -15.04272,8.13578 0,0 c -0.006,-2.16815 -0.0193,-4.33646 0.007,-6.5045 -0.0182,-2.43378 0.0318,-4.86809 -0.002,-7.30208 -0.0191,-2.0873 -0.0294,-4.17361 -0.005,-6.26105 0.024,-2.28672 -0.0278,-4.5735 0.0106,-6.8603 -6.5e-4,-2.38021 -7e-5,-4.76048 -0.0191,-7.14063 -0.02,-1.82912 -0.0381,-3.65831 0.003,-5.48741 0.0132,-2.29391 0.0166,-4.58733 -0.002,-6.88118 0.0335,-2.34112 0.005,-4.68271 0.0109,-7.02404 -0.002,-2.36232 -0.007,-4.72478 0.0229,-7.08695 -0.0213,-3.06378 0.0559,-6.1271 0.0702,-9.19076 -0.008,-3.59999 0.04,-11.85781 -0.14051,-15.45401 l 15.12975,-3.52919 z"
       inkscape:connector-curvature="0"
       sodipodi:nodetypes="ccccccccccccccccccccccccccc"
       inkscape:export-filename="/Users/geza/Dropbox/xtrm-logo/xtrm-logo5.png"
       inkscape:export-xdpi="207.18076"
       inkscape:export-ydpi="207.18076" />
    <path
       sodipodi:nodetypes="ccccccccccccccccccccccccccc"
       inkscape:connector-curvature="0"
       d="m 434.39966,308.77772 c -0.178,3.43591 -0.13234,6.87883 -0.1405,10.31813 0.0148,2.8624 0.0912,5.72448 0.0702,8.58701 0.0299,2.2176 0.0248,4.43547 0.0229,6.65322 0.007,2.20204 -0.0231,4.40436 0.0109,6.60621 -0.0182,2.1616 -0.015,4.3228 -0.002,6.48447 0.0417,1.72207 0.023,3.44425 0.003,5.16635 -0.019,2.24881 -0.0185,4.49773 -0.0191,6.74661 0.0386,2.15076 -0.0137,4.30153 0.0106,6.45224 0.0246,1.96826 0.0139,3.93547 -0.005,5.90361 -0.0334,2.29365 0.0163,4.58759 -0.002,6.88103 0.0261,2.0402 0.0123,4.08064 0.007,6.12093 l -15.04272,7.66465 0,0 c -0.006,-2.04259 -0.0193,-4.08534 0.007,-6.12784 -0.0182,-2.29284 0.0318,-4.58619 -0.002,-6.87923 -0.0191,-1.96643 -0.0294,-3.93193 -0.005,-5.89849 0.024,-2.15431 -0.0278,-4.30868 0.0106,-6.46304 -6.5e-4,-2.24239 -7e-5,-4.48482 -0.0191,-6.72714 -0.02,-1.7232 -0.0381,-3.44647 0.003,-5.16965 0.0132,-2.16108 0.0166,-4.3217 -0.002,-6.48271 0.0335,-2.20556 0.005,-4.41155 0.0109,-6.6173 -0.002,-2.22553 -0.007,-4.45118 0.0229,-6.67657 -0.0213,-2.88636 0.0559,-5.7723 0.0702,-8.65855 -0.008,-3.39152 0.04,-16.10334 -0.14051,-19.49129 l 15.12975,1.60735 z"
       id="path4361"
       style="fill:#000000;fill-opacity:1;stroke:none"
       inkscape:export-xdpi="207.18076"
       inkscape:export-ydpi="207.18076"
       inkscape:export-filename="/Users/geza/Dropbox/xtrm-logo/xtrm-logo5.png" />
    <path
       inkscape:export-ydpi="207.18076"
       inkscape:export-xdpi="207.18076"
       inkscape:export-filename="/Users/geza/path4390.png"
       sodipodi:nodetypes="ccccccccccccccccccccc"
       inkscape:connector-curvature="0"
       d="m 74.107135,794.14034 c 15.122733,0.29227 29.825945,0.2691 44.192365,0.0503 2.25314,0.1313 4.58932,-0.31888 6.79578,0.20842 2.473,1.19662 2.47907,3.73637 2.61514,6.17304 -0.0191,4.36827 0.76706,8.67397 1.27623,12.99734 2.17395,15.96301 3.58248,46.04019 16.42019,57.21425 2.65114,2.20177 5.97237,3.15954 9.28219,3.86444 18.70255,1.59876 37.18465,1.01032 55.005,0.78183 2.18128,-0.008 1.10654,-0.003 3.22422,-0.0137 l -13.55568,9.84919 0,0 c -17.48051,-1.39797 -40.16835,2.00864 -58.35323,-1.14392 -3.55829,-0.87792 -7.03674,-2.02853 -9.84514,-4.48864 -2.41156,-2.17737 -4.65279,-4.63728 -5.67781,-7.78875 -7.63704,-15.92886 -9.2381,-33.8725 -11.09165,-50.60939 -0.57313,-4.31442 -1.46471,-8.60032 -1.56327,-12.96425 -0.10042,-1.44248 0.25109,-3.79843 -1.58262,-4.13438 -11.847365,-0.0853 -24.221398,-0.29818 -35.407749,-0.2149 -5.157352,0.0282 -10.316692,0.0119 -15.471489,0.20003 l 13.737523,-9.98089 z"
       id="path4382"
       style="fill:#000000;fill-opacity:1;stroke:none" />
    <path
       inkscape:export-ydpi="207.18076"
       inkscape:export-xdpi="207.18076"
       inkscape:export-filename="/Users/geza/path4390.png"
       sodipodi:nodetypes="ccscccsccsccc"
       inkscape:connector-curvature="0"
       d="m 120.02083,841.09971 c 2.25099,-2.89115 8.77387,-7.51479 11.34145,-10.13709 16.08128,-14.57892 33.33571,-35.00553 53.26898,-35.38995 43.31232,-0.83527 96.97399,-1.09384 141.83586,-1.37066 14.90765,-0.25166 34.49943,0.57704 26.29237,19.41247 -24.54189,33.94934 -43.62482,51.43765 -73.82789,72.81048 -3.95505,-1.38256 4.48927,-14.53149 11.40958,-21.04508 14.6807,-13.81788 27.96561,-28.54351 33.77902,-35.31157 10.36987,-12.16061 21.27401,-26.0149 4.97285,-25.97421 -47.91473,-0.12706 -101.95679,0.098 -141.34052,1.50068 -20.62462,0.73458 -35.67607,23.8139 -48.23299,38.91814 -25.04075,27.99827 -49.750776,37.52265 -79.532034,40.07935 43.130374,-25.14572 28.993292,-18.1778 60.033324,-43.49256 z"
       id="path4384"
       style="fill:#000000;fill-opacity:1;stroke:none" />
    <path
       inkscape:export-ydpi="207.18076"
       inkscape:export-xdpi="207.18076"
       inkscape:export-filename="/Users/geza/path4390.png"
       sodipodi:nodetypes="cscccssccsccccc"
       inkscape:connector-curvature="0"
       d="m 321.73349,844.08261 c 12.27578,11.731 11.38737,28.56296 39.43445,33.29493 8.37255,1.41258 11.08685,-10.47426 10.82269,-20.09696 3.7089,-37.44176 2.8606,-27.76762 3.24251,-52.09574 0.55859,-16.22445 8.76332,-12.39851 98.21507,-13.31106 4.93918,0.0235 8.90825,0.34316 12.07649,0.61794 11.81337,1.02455 7.60809,24.37177 7.7479,40.58524 0.23217,26.92368 -0.0451,0.28989 0.10091,27.22891 -0.0205,0.30839 -1.68506,28.56582 -1.70546,28.87421 -12.34296,-13.84463 -13.45049,-18.84487 -12.10926,-47.92009 0.39775,-8.62261 -0.18156,-26.81172 0.16779,-38.52795 -77.72996,-0.42531 -8.56263,-0.68581 -88.81987,-0.55302 -5.01379,73.63455 3.42661,85.69505 -41.79281,85.38976 -28.82318,-9.65403 -23.41309,-17.99667 -38.28186,-33.65385 4.60322,-2.19411 7.66712,-12.83371 10.90145,-9.83232 z"
       id="path4386"
       style="fill:#000000;fill-opacity:1;stroke:none" />
    <path
       inkscape:export-ydpi="207.18076"
       inkscape:export-xdpi="207.18076"
       inkscape:export-filename="/Users/geza/path4390.png"
       sodipodi:nodetypes="ccccccccccccccccccccccccccc"
       inkscape:connector-curvature="0"
       d="m 250.26503,801.3062 c -0.178,3.43591 -0.13234,6.87883 -0.1405,10.31813 0.0148,2.8624 0.0912,5.72448 0.0702,8.58701 0.0299,2.2176 0.0248,4.43547 0.0229,6.65322 0.007,2.20204 -0.0231,4.40436 0.0109,6.60621 -0.0182,2.1616 -0.015,4.3228 -0.002,6.48447 0.0417,1.72207 0.023,3.44425 0.003,5.16635 -0.019,2.24881 -0.0185,4.49773 -0.0191,6.74661 0.0386,2.15076 -0.0137,4.30153 0.0106,6.45224 0.0246,1.96826 0.0139,3.93547 -0.005,5.90361 -0.0334,2.29365 0.0163,4.58759 -0.002,6.88103 0.0261,2.0402 0.0123,4.08064 0.007,6.12093 l -15.04272,7.66465 0,0 c -0.006,-2.04259 -0.0193,-4.08534 0.007,-6.12784 -0.0182,-2.29284 0.0318,-4.58619 -0.002,-6.87923 -0.0191,-1.96643 -0.0294,-3.93193 -0.005,-5.89849 0.024,-2.15431 -0.0278,-4.30868 0.0106,-6.46304 -6.5e-4,-2.24239 -7e-5,-4.48482 -0.0191,-6.72714 -0.02,-1.7232 -0.0381,-3.44647 0.003,-5.16965 0.0132,-2.16108 0.0166,-4.3217 -0.002,-6.48271 0.0335,-2.20556 0.005,-4.41155 0.0109,-6.6173 -0.002,-2.22553 -0.007,-4.45118 0.0229,-6.67657 -0.0213,-2.88636 0.0559,-5.7723 0.0702,-8.65855 -0.008,-3.39152 0.04,-11.17116 -0.14051,-14.55911 l 15.12975,-3.32483 z"
       id="path4388"
       style="fill:#000000;fill-opacity:1;stroke:none" />
    <path
       inkscape:export-ydpi="207.18076"
       inkscape:export-xdpi="207.18076"
       style="fill:#000000;fill-opacity:1;stroke:none"
       id="path4390"
       d="m 442.61996,801.3062 c -0.178,3.43591 -0.13234,6.87883 -0.1405,10.31813 0.0148,2.8624 0.0912,5.72448 0.0702,8.58701 0.0299,2.2176 0.0248,4.43547 0.0229,6.65322 0.007,2.20204 -0.0231,4.40436 0.0109,6.60621 -0.0182,2.1616 -0.015,4.3228 -0.002,6.48447 0.0417,1.72207 0.023,3.44425 0.003,5.16635 -0.019,2.24881 -0.0185,4.49773 -0.0191,6.74661 0.0386,2.15076 -0.0137,4.30153 0.0106,6.45224 0.0246,1.96826 0.0139,3.93547 -0.005,5.90361 -0.0334,2.29365 0.0163,4.58759 -0.002,6.88103 0.0261,2.0402 0.0123,4.08064 0.007,6.12093 l -15.04272,7.66465 0,0 c -0.006,-2.04259 -0.0193,-4.08534 0.007,-6.12784 -0.0182,-2.29284 0.0318,-4.58619 -0.002,-6.87923 -0.0191,-1.96643 -0.0294,-3.93193 -0.005,-5.89849 0.024,-2.15431 -0.0278,-4.30868 0.0106,-6.46304 -6.5e-4,-2.24239 -7e-5,-4.48482 -0.0191,-6.72714 -0.02,-1.7232 -0.0381,-3.44647 0.003,-5.16965 0.0132,-2.16108 0.0166,-4.3217 -0.002,-6.48271 0.0335,-2.20556 0.005,-4.41155 0.0109,-6.6173 -0.002,-2.22553 -0.007,-4.45118 0.0229,-6.67657 -0.0213,-2.88636 0.0559,-5.7723 0.0702,-8.65855 -0.008,-3.39152 0.04,-16.10334 -0.14051,-19.49129 l 15.12975,1.60735 z"
       inkscape:connector-curvature="0"
       sodipodi:nodetypes="ccccccccccccccccccccccccccc" />
    <g
       transform="matrix(0.82328414,0,0,0.71674708,-6.5903265,109.40958)"
       style="font-size:40px;font-style:normal;font-weight:normal;line-height:125%;letter-spacing:-14.0283823px;word-spacing:0px;fill:#000000;fill-opacity:1;stroke:#000000;stroke-width:5.32563782;stroke-miterlimit:4;stroke-opacity:1;stroke-dasharray:none;font-family:Sans"
       id="flowRoot2996"
       inkscape:export-filename="/Users/geza/Dropbox/xtrm-logo/xtrm-hangul.png"
       inkscape:export-xdpi="828.63031"
       inkscape:export-ydpi="828.63031">
      <path
         d="m 107.60653,478.55559 c 3.5822,1.2e-4 7.16444,0.63228 10.74673,1.89648 3.58218,1.15908 6.84834,3.05556 9.79848,5.68945 3.05538,2.52874 5.58402,5.7949 7.58593,9.79848 2.00177,4.00378 3.26609,8.74498 3.79296,14.22361 l 19.59697,0 0,-33.03038 c -9e-5,-1.47492 0.73743,-2.21244 2.21256,-2.21256 l 6.00552,0 c 1.47494,1.2e-4 2.21246,0.73764 2.21257,2.21256 l 0,76.17532 c -1.1e-4,1.47508 -0.73763,2.2126 -2.21257,2.21256 l -6.00552,0 c -1.47513,4e-5 -2.21265,-0.73748 -2.21256,-2.21256 l 0,-33.66254 -19.75501,0 c -0.52687,5.37344 -1.84387,10.06196 -3.951,14.06557 -2.00191,3.89838 -4.47787,7.16454 -7.42789,9.79849 -2.95014,2.52869 -6.2163,4.42517 -9.79848,5.68944 -3.58229,1.26437 -7.16453,1.89653 -10.74673,1.89648 -3.793,5e-5 -7.585956,-0.68479 -11.378883,-2.05452 -3.68763,-1.47499 -7.006468,-3.68755 -9.956526,-6.63768 -2.950099,-3.05539 -5.320698,-6.84835 -7.111804,-11.37889 -1.791133,-4.63577 -2.686692,-10.11449 -2.686681,-16.43617 -1.1e-5,-6.32151 0.895548,-11.74755 2.686681,-16.27813 1.896466,-4.53038 4.319745,-8.27066 7.269844,-11.22084 2.950058,-2.94997 6.268896,-5.10985 9.956526,-6.47965 3.792923,-1.36956 7.585883,-2.0544 11.378883,-2.05452 m 21.17737,36.03314 c -6e-5,-4.10896 -0.57954,-7.79655 -1.73844,-11.0628 -1.05366,-3.26607 -2.5287,-6.00543 -4.42512,-8.21809 -1.89654,-2.31782 -4.16177,-4.05626 -6.79572,-5.21532 -2.63405,-1.26422 -5.42609,-1.89638 -8.37613,-1.89648 -6.427,1e-4 -11.431594,2.42338 -15.013805,7.26984 -3.476906,4.7413 -5.215345,11.11558 -5.215323,19.12285 -2.2e-5,8.1128 1.843777,14.64512 5.531403,19.59697 3.68757,4.84662 8.586805,7.2699 14.697725,7.26985 2.95004,5e-5 5.74208,-0.63211 8.37613,-1.89649 2.63395,-1.26426 4.89918,-3.05538 6.79572,-5.37336 1.89642,-2.31786 3.37146,-5.10989 4.42512,-8.37612 1.1589,-3.37145 1.73838,-7.11173 1.73844,-11.22085 m -28.13113,53.73363 c -4e-5,-0.63213 0.26336,-1.10625 0.7902,-1.42236 0.52676,-0.31605 1.05356,-0.47409 1.5804,-0.47412 l 82.49692,0 c 4.9518,3e-5 8.16528,0.94827 9.64045,2.84472 1.58027,1.79115 2.37047,4.84658 2.3706,9.16633 l 0,37.92962 c -1.3e-4,1.47501 -0.73765,2.21253 -2.21256,2.21256 l -6.47964,0 c -1.47517,-3e-5 -2.21269,-0.73755 -2.21256,-2.21256 l 0,-37.13942 c -1.3e-4,-1.47503 -0.26353,-2.37059 -0.79021,-2.68669 -0.42156,-0.42142 -1.3698,-0.63214 -2.84472,-0.63216 l -79.96828,0 c -0.52684,2e-5 -1.05364,-0.15802 -1.5804,-0.47412 -0.52684,-0.42142 -0.79024,-0.89554 -0.7902,-1.42236 l 0,-5.68944 m 96.87857,-12.64321 c -1.3e-4,1.47508 -0.73765,2.2126 -2.21256,2.21256 l -6.00552,0 c -1.47517,4e-5 -2.21269,-0.73748 -2.21256,-2.21256 l 0,-81.2326 c -1.3e-4,-1.47492 0.73739,-2.21244 2.21256,-2.21256 l 6.00552,0 c 1.47491,1.2e-4 2.21243,0.73764 2.21256,2.21256 l 0,81.2326"
         style="font-size:158.04008484px;font-variant:normal;font-stretch:normal;stroke:#000000;stroke-width:5.32563782;stroke-miterlimit:4;stroke-opacity:1;stroke-dasharray:none;font-family:Arial;-inkscape-font-specification:Arial"
         id="path3782"
         inkscape:connector-curvature="0" />
      <path
         d="m 294.19038,482.03247 c -0.31616,2.9502 -0.84296,5.74223 -1.5804,8.37613 0.21064,1.15906 0.47404,2.26534 0.7902,3.31884 0.316,0.94834 0.68476,1.79122 1.10628,2.52864 2.63392,5.16274 5.79472,10.06198 9.48241,14.69773 3.79287,4.63592 7.90191,8.85032 12.32713,12.64321 4.42501,3.79303 9.11353,7.11186 14.06556,9.95652 5.05717,2.73942 10.2198,4.84662 15.48793,6.3216 0.63203,0.21078 1.05347,0.63222 1.26432,1.26433 0.21059,0.63221 0.21059,1.21169 0,1.73844 l -2.52864,5.21532 c -0.31621,0.52685 -0.68497,0.94829 -1.10628,1.26432 -0.31621,0.31613 -1.00105,0.26345 -2.05452,-0.15804 -5.79493,-2.00179 -11.379,-4.53043 -16.75225,-7.58592 -5.26811,-3.05539 -10.22003,-6.47959 -14.85577,-10.27261 -4.53057,-3.89825 -8.69229,-8.11265 -12.48516,-12.64321 -3.79305,-4.63576 -7.0592,-9.42964 -9.79849,-14.38164 -2.42335,5.05736 -5.42611,9.9566 -9.00828,14.69772 -3.58231,4.74128 -7.58599,9.1664 -12.01105,13.27537 -4.42517,4.00374 -9.21905,7.63866 -14.38165,10.90477 -5.16267,3.26621 -10.58871,5.95289 -16.27813,8.06004 -1.68578,0.63221 -2.73938,0.42149 -3.1608,-0.63216 l -2.84472,-5.5314 c -0.21074,-0.52675 -0.26342,-1.05355 -0.15804,-1.5804 0.2107,-0.63211 0.63214,-1.10623 1.26432,-1.42236 7.0591,-2.63395 13.59142,-6.05815 19.59697,-10.27261 6.00548,-4.31969 11.27348,-9.11357 15.80401,-14.38165 4.63578,-5.37328 8.37606,-11.16807 11.22085,-17.38441 2.95001,-6.21614 4.84649,-12.59041 5.68944,-19.12285 0.10529,-1.2642 0.79013,-1.89636 2.05452,-1.89648 l 7.1118,0.7902 c 1.26424,0.21084 1.84372,0.94836 1.73844,2.21256 m 61.63564,101.46174 c 0.52666,1e-5 1.05346,0.21073 1.5804,0.63216 0.52665,0.31609 0.79005,0.79021 0.7902,1.42236 l 0,5.37336 c -1.5e-4,0.52681 -0.26355,1.00093 -0.7902,1.42236 -0.52694,0.42145 -1.05374,0.63217 -1.5804,0.63216 l -134.33408,0 c -0.63216,10e-6 -1.21164,-0.21071 -1.73844,-0.63216 -0.42144,-0.42143 -0.63216,-0.89555 -0.63216,-1.42236 l 0,-5.37336 c 0,-0.63215 0.21072,-1.10627 0.63216,-1.42236 0.5268,-0.42143 1.10628,-0.63215 1.73844,-0.63216 l 134.33408,0"
         style="font-size:158.04008484px;font-variant:normal;font-stretch:normal;stroke:#000000;stroke-width:5.32563782;stroke-miterlimit:4;stroke-opacity:1;stroke-dasharray:none;font-family:Arial;-inkscape-font-specification:Arial"
         id="path3784"
         inkscape:connector-curvature="0" />
      <path
         d="m 458.199,552.20227 c -1.3e-4,1.47508 -0.68497,2.2126 -2.05452,2.21256 l -85.34165,0 c -4.63587,4e-5 -7.79667,-0.73748 -9.4824,-2.21256 -1.68579,-1.58035 -2.52867,-4.58311 -2.52864,-9.00828 l 0,-51.36303 c -3e-5,-4.42501 0.84285,-7.37509 2.52864,-8.85025 1.68573,-1.58028 4.84653,-2.37048 9.4824,-2.3706 l 84.23537,0 c 1.36956,1.2e-4 2.0544,0.68496 2.05452,2.05452 l 0,5.21533 c -1.2e-4,1.47514 -0.68496,2.21266 -2.05452,2.21256 l -81.54869,0 c -1.47508,1e-4 -2.47599,0.31618 -3.00276,0.94824 -0.52683,0.5269 -0.79023,1.5805 -0.7902,3.1608 l 0,18.64873 83.12909,0 c 1.47492,8e-5 2.21244,0.57956 2.21256,1.73844 l 0,5.37336 c -1.2e-4,1.36976 -0.68496,2.0546 -2.05452,2.05453 l -83.28713,0 0,18.80677 c -3e-5,1.47509 0.26337,2.52869 0.7902,3.1608 0.52677,0.63221 1.52768,0.94829 3.00276,0.94824 l 82.65497,0 c 1.36955,5e-5 2.05439,0.68489 2.05452,2.05452 l 0,5.21532 m 17.22637,31.29194 c 0.52666,1e-5 1.05346,0.21073 1.5804,0.63216 0.52666,0.31609 0.79006,0.79021 0.7902,1.42236 l 0,5.37336 c -1.4e-4,0.52681 -0.26354,1.00093 -0.7902,1.42236 -0.52694,0.42145 -1.05374,0.63217 -1.5804,0.63216 l -134.33407,0 c -0.63217,10e-6 -1.21165,-0.21071 -1.73844,-0.63216 -0.42145,-0.42143 -0.63217,-0.89555 -0.63217,-1.42236 l 0,-5.37336 c 0,-0.63215 0.21072,-1.10627 0.63217,-1.42236 0.52679,-0.42143 1.10627,-0.63215 1.73844,-0.63216 l 134.33407,0"
         style="font-size:158.04008484px;font-variant:normal;font-stretch:normal;stroke:#000000;stroke-width:5.32563782;stroke-miterlimit:4;stroke-opacity:1;stroke-dasharray:none;font-family:Arial;-inkscape-font-specification:Arial"
         id="path3786"
         inkscape:connector-curvature="0" />
      <path
         d="m 595.64463,556.94347 c -1.3e-4,1.47508 -0.73765,2.2126 -2.21256,2.21257 l -6.47964,0 c -1.47516,3e-5 -2.21268,-0.73749 -2.21256,-2.21257 l 0,-82.49692 c -1.2e-4,-1.47492 0.7374,-2.21244 2.21256,-2.21256 l 6.47964,0 c 1.47491,1.2e-4 2.21243,0.73764 2.21256,2.21256 l 0,82.49692 m -90.24089,22.28366 c -3e-5,-4.42511 0.84285,-7.37518 2.52864,-8.85025 1.68572,-1.58037 4.84652,-2.37057 9.48241,-2.3706 l 66.2188,0 c 2.52852,3e-5 4.53036,0.15807 6.00552,0.47412 1.58028,0.31611 2.79192,0.89559 3.63492,1.73844 0.94812,0.84291 1.58027,2.00187 1.89648,3.47688 0.31595,1.47506 0.47399,3.31886 0.47412,5.53141 l 0,26.23465 c -1.3e-4,4.42511 -0.84301,7.37519 -2.52864,8.85024 -1.68588,1.58039 -4.84668,2.37059 -9.4824,2.37061 l -66.2188,0 c -2.52869,-2e-5 -4.58321,-0.15806 -6.16356,-0.47412 -1.47509,-0.3161 -2.68673,-0.94826 -3.63493,-1.89649 -0.84291,-0.84289 -1.42239,-2.00185 -1.73844,-3.47688 -0.31611,-1.36969 -0.47415,-3.16081 -0.47412,-5.37336 l 0,-26.23465 m 14.69773,-1.73845 c -1.47509,2e-5 -2.47601,0.3161 -3.00276,0.94825 -0.52685,0.52681 -0.79025,1.58041 -0.7902,3.1608 l 0,21.49345 c -5e-5,1.58039 0.26335,2.63399 0.7902,3.1608 0.52675,0.63215 1.52767,0.94823 3.00276,0.94824 l 60.84543,0 c 1.47493,-10e-6 2.47585,-0.31609 3.00277,-0.94824 0.52668,-0.52681 0.79008,-1.58041 0.7902,-3.1608 l 0,-21.49345 c -1.2e-4,-1.58039 -0.26352,-2.63399 -0.7902,-3.1608 -0.52692,-0.63215 -1.52784,-0.94823 -3.00277,-0.94825 l -60.84543,0 m -22.12561,-26.23465 c -4.74123,5e-5 -7.95471,-0.89551 -9.64045,-2.68668 -1.58042,-1.89643 -2.37061,-5.05723 -2.3706,-9.48241 l 0,-18.64873 c -10e-6,-4.42504 0.89554,-7.37512 2.68668,-8.85024 1.89646,-1.58032 5.2153,-2.37052 9.95653,-2.3706 l 38.08766,0 c 1.47497,8e-5 2.42321,-0.21063 2.84472,-0.63216 0.42137,-0.42135 0.63209,-1.42227 0.63216,-3.00276 l 0,-14.22361 c -7e-5,-1.5803 -0.21079,-2.58122 -0.63216,-3.00276 -0.31615,-0.42134 -1.21171,-0.63206 -2.68668,-0.63216 l -48.36027,0 c -1.26434,10e-5 -1.8965,-0.68473 -1.89648,-2.05452 l 0,-5.53141 c -2e-5,-1.2642 0.63214,-1.89636 1.89648,-1.89648 l 50.09871,0 c 2.52857,1.2e-4 4.58309,0.21084 6.16356,0.63216 1.58033,0.3162 2.84465,0.89568 3.79297,1.73844 0.94816,0.843 1.58032,2.05464 1.89648,3.63492 0.42136,1.47516 0.63207,3.31895 0.63216,5.53141 l 0,17.70049 c -9e-5,4.4252 -0.94832,7.42796 -2.84472,9.00828 -1.7912,1.47512 -5.05736,2.21264 -9.79849,2.21256 l -38.2457,0 c -1.47507,8e-5 -2.42331,0.2108 -2.84472,0.63216 -0.31611,0.42152 -0.47415,1.42244 -0.47412,3.00277 l 0,15.96204 c -3e-5,2.42334 1.15893,3.63498 3.47688,3.63493 6.21621,5e-5 12.16904,-0.10531 17.85853,-0.31608 5.68939,-0.21067 11.22079,-0.52675 16.59421,-0.94824 5.47865,-0.52675 10.85201,-1.10623 16.12009,-1.73845 5.26791,-0.73746 10.64127,-1.58034 16.12009,-2.52864 1.0535,-0.21066 1.73834,-0.21066 2.05452,0 0.42134,0.21078 0.73742,0.73758 0.94824,1.5804 l 0.94824,5.05729 c 0.21062,0.94829 0.10526,1.58045 -0.31608,1.89648 -0.31618,0.31613 -0.94834,0.57953 -1.89648,0.7902 -9.90394,1.79117 -20.96673,3.21353 -33.18842,4.26708 -12.22182,0.94829 -24.75966,1.36973 -37.61354,1.26432"
         style="font-size:158.04008484px;font-variant:normal;font-stretch:normal;stroke:#000000;stroke-width:5.32563782;stroke-miterlimit:4;stroke-opacity:1;stroke-dasharray:none;font-family:Arial;-inkscape-font-specification:Arial"
         id="path3788"
         inkscape:connector-curvature="0" />
    </g>
    <flowRoot
       xml:space="preserve"
       id="flowRoot3809"
       style="fill:black;stroke:none;stroke-opacity:1;stroke-width:1px;stroke-linejoin:miter;stroke-linecap:butt;fill-opacity:1;font-family:Sans;font-style:normal;font-weight:normal;font-size:40px;line-height:125%;letter-spacing:0px;word-spacing:0px"><flowRegion
         id="flowRegion3811"><rect
           id="rect3813"
           width="173.72238"
           height="118.37235"
           x="192.35507"
           y="602.43762" /></flowRegion><flowPara
         id="flowPara3815"></flowPara></flowRoot>    <g
       transform="matrix(1.1948169,0,0,1.1948169,-64.954278,-166.05095)"
       style="font-size:40px;font-style:normal;font-weight:normal;line-height:125%;letter-spacing:0px;word-spacing:0px;fill:#000000;fill-opacity:1;stroke:#000000;stroke-width:3;stroke-miterlimit:4;stroke-opacity:1;stroke-dasharray:none;font-family:Sans"
       id="flowRoot3821"
       inkscape:export-filename="/Users/geza/Dropbox/xtrm-logo/dance.png"
       inkscape:export-xdpi="1657.9092"
       inkscape:export-ydpi="1657.9092">
      <path
         d="m 222.567,733.0315 c -2e-5,-4.03199 0.76798,-6.71998 2.304,-8.064 1.53597,-1.43998 4.41597,-2.15998 8.64,-2.16 l 27.36,0 0,-15.408 -56.016,0 c -0.57601,4e-5 -1.10401,-0.19196 -1.584,-0.576 -0.384,-0.38396 -0.576,-0.81596 -0.576,-1.296 l 0,-4.896 c 0,-0.57596 0.192,-1.00796 0.576,-1.296 0.47999,-0.38396 1.00799,-0.57596 1.584,-0.576 l 122.4,0 c 0.47987,4e-5 0.95987,0.19204 1.44,0.576 0.47987,0.28804 0.71987,0.72004 0.72,1.296 l 0,4.896 c -1.3e-4,0.48004 -0.24013,0.91204 -0.72,1.296 -0.48013,0.38404 -0.96013,0.57604 -1.44,0.576 l -56.448,0 0,15.408 27.504,0 c 2.3039,2e-5 4.1279,0.14402 5.472,0.432 1.43989,0.28802 2.54389,0.81602 3.312,1.584 0.86389,0.76802 1.43989,1.82402 1.728,3.168 0.28789,1.34401 0.43189,3.02401 0.432,5.04 l 0,19.44 c -1.1e-4,4.03199 -0.76811,6.71998 -2.304,8.064 -1.53611,1.43998 -4.4161,2.15998 -8.64,2.16 l -64.8,0 c -2.30403,-2e-5 -4.17603,-0.14402 -5.616,-0.432 -1.34403,-0.28802 -2.44803,-0.86402 -3.312,-1.728 -0.76803,-0.76802 -1.29602,-1.82402 -1.584,-3.168 -0.28802,-1.24801 -0.43202,-2.88001 -0.432,-4.896 l 0,-19.44 m 74.88,-70.56 c -5.18409,3.64808 -11.37609,7.15207 -18.576,10.512 5.27991,1.53607 11.03991,2.97607 17.28,4.32 6.2399,1.24807 12.23989,2.25606 18,3.024 0.76788,0.0961 1.19988,0.33606 1.296,0.72 0.19188,0.28806 0.19188,0.76806 0,1.44 l -1.296,4.896 c -0.19212,1.05606 -0.96011,1.44005 -2.304,1.152 -3.07211,-0.47994 -6.52811,-1.05594 -10.368,-1.728 -3.7441,-0.76794 -7.6321,-1.58394 -11.664,-2.448 -4.03209,-0.95994 -8.06408,-1.91994 -12.096,-2.88 -4.03208,-1.05594 -7.92007,-2.11194 -11.664,-3.168 -6.52806,2.40006 -13.58405,4.60806 -21.168,6.624 -7.48804,1.92006 -15.50403,3.60006 -24.048,5.04 -1.44002,0.28805 -2.35202,-0.048 -2.736,-1.008 l -1.728,-4.896 c -0.19202,-0.47994 -0.14402,-0.91194 0.144,-1.296 0.28798,-0.47994 0.71998,-0.81594 1.296,-1.008 6.81597,-1.24794 13.19997,-2.59194 19.152,-4.032 5.95196,-1.53593 11.61595,-3.16793 16.992,-4.896 5.37594,-1.72793 10.55993,-3.59993 15.552,-5.616 5.08792,-2.01592 10.12792,-4.22392 15.12,-6.624 1.63191,-0.76792 2.35191,-1.48792 2.16,-2.16 -0.0961,-0.67191 -0.91209,-1.00791 -2.448,-1.008 l -57.312,0 c -1.24803,9e-5 -1.87203,-0.62391 -1.872,-1.872 l 0,-5.04 c -3e-5,-1.15191 0.62397,-1.72791 1.872,-1.728 l 62.208,0 c 7.4879,9e-5 12.0479,1.34409 13.68,4.032 1.63189,2.59209 -0.1921,5.80809 -5.472,9.648 m -61.488,68.976 c -1.34404,10e-6 -2.25604,0.28801 -2.736,0.864 -0.48003,0.48001 -0.72003,1.44001 -0.72,2.88 l 0,15.12 c -3e-5,1.43999 0.23997,2.39999 0.72,2.88 0.47996,0.57599 1.39196,0.86399 2.736,0.864 l 59.904,0 c 1.3439,-1e-5 2.2559,-0.28801 2.736,-0.864 0.4799,-0.48001 0.7199,-1.44001 0.72,-2.88 l 0,-15.12 c -1e-4,-1.43999 -0.2401,-2.39999 -0.72,-2.88 -0.4801,-0.57599 -1.3921,-0.86399 -2.736,-0.864 l -59.904,0 m 48.24,-100.368 c 1.43991,1.1e-4 2.15991,0.67211 2.16,2.016 l 0,4.608 c -9e-5,1.4401 -0.72009,2.1601 -2.16,2.16 l -37.872,0 c -1.44005,10e-5 -2.16005,-0.7199 -2.16,-2.16 l 0,-4.608 c -5e-5,-1.34389 0.71995,-2.01589 2.16,-2.016 l 37.872,0"
         style="font-size:144px;stroke:#000000;stroke-width:3;stroke-miterlimit:4;stroke-opacity:1;stroke-dasharray:none"
         id="path3851"
         inkscape:connector-curvature="0" />
    </g>
    <path
       sodipodi:type="arc"
       style="fill:none;stroke:#000000;stroke-width:11.38134921;stroke-miterlimit:4;stroke-opacity:1;stroke-dasharray:none"
       id="path3829"
       sodipodi:cx="274.28409"
       sodipodi:cy="688.75079"
       sodipodi:rx="97.821594"
       sodipodi:ry="97.821594"
       d="m 372.10568,688.75079 a 97.821594,97.821594 0 1 1 -195.64319,0 97.821594,97.821594 0 1 1 195.64319,0 z"
       transform="matrix(1.0133245,0,0,1.0133245,-24.013384,-26.247834)"
       inkscape:export-filename="/Users/geza/Dropbox/xtrm-logo/dance.png"
       inkscape:export-xdpi="1657.9092"
       inkscape:export-ydpi="1657.9092" />
  </g>
</svg>
